<svg width="272" height="107" viewBox="0 0 272 107" fill="none" xmlns="http://www.w3.org/2000/svg">
<path d="M36.5135 39.3236H49.6164V83H36.5135V78.8944C33.6308 82.2138 29.3506 84.2229 23.4979 84.2229C12.0547 84.2229 2.62058 74.1774 2.62058 61.1618C2.62058 48.1462 12.0547 38.1006 23.4979 38.1006C29.3506 38.1006 33.6308 40.1098 36.5135 43.4292V39.3236ZM26.1185 71.8188C32.1458 71.8188 36.5135 67.7133 36.5135 61.1618C36.5135 54.6103 32.1458 50.5047 26.1185 50.5047C20.0911 50.5047 15.7235 54.6103 15.7235 61.1618C15.7235 67.7133 20.0911 71.8188 26.1185 71.8188ZM108.147 38.1006C118.192 38.1006 124.744 45.2636 124.744 56.1827V83H111.641V57.3183C111.641 52.9506 109.545 50.1553 105.352 50.1553C100.984 50.1553 98.5381 53.2127 98.5381 58.3665V83H85.4352V57.3183C85.4352 52.9506 83.3387 50.1553 79.1458 50.1553C74.7781 50.1553 72.3322 53.2127 72.3322 58.3665V83H59.2293V39.3236H72.3322V43.3418C74.3413 40.3718 78.1849 38.1006 84.0375 38.1006C89.1913 38.1006 93.0349 40.1971 95.4807 43.8659C97.9266 40.3718 101.945 38.1006 108.147 38.1006Z" fill="white"/>
<g clip-path="url(#clip0_1_7424)">
<circle cx="156.185" cy="62.7874" r="8.81671" fill="white"/>
<path fill-rule="evenodd" clip-rule="evenodd" d="M181.911 39.0893C182.233 38.8349 181.952 38.3249 181.565 38.4609L175.012 40.7612C172.709 41.57 170.324 42.1191 167.902 42.3995C164.452 40.4128 160.451 39.2763 156.185 39.2763C143.2 39.2763 132.674 49.8027 132.674 62.7876C132.674 75.7724 143.2 86.2988 156.185 86.2988C169.17 86.2988 179.696 75.7724 179.696 62.7876C179.696 58.0344 178.286 53.6107 175.86 49.9121C176.377 45.7122 178.501 41.7815 181.911 39.0893ZM156.185 78.9145C147.278 78.9145 140.058 71.6942 140.058 62.7876C140.058 53.8809 147.278 46.6606 156.185 46.6606C165.091 46.6606 172.312 53.8809 172.312 62.7876C172.312 71.6942 165.091 78.9145 156.185 78.9145Z" fill="#3EC492"/>
</g>
<path d="M203.907 47.098C205.654 41.2454 211.507 38.4501 217.01 38.4501V53.3C211.594 52.4265 203.907 54.6103 203.907 63.2583V83H190.804V39.3236H203.907V47.098ZM253.565 39.3236H266.668V83H253.565V78.8944C250.682 82.2138 246.402 84.2229 240.549 84.2229C229.106 84.2229 219.672 74.1774 219.672 61.1618C219.672 48.1462 229.106 38.1006 240.549 38.1006C246.402 38.1006 250.682 40.1098 253.565 43.4292V39.3236ZM243.17 71.8188C249.197 71.8188 253.565 67.7133 253.565 61.1618C253.565 54.6103 249.197 50.5047 243.17 50.5047C237.142 50.5047 232.775 54.6103 232.775 61.1618C232.775 67.7133 237.142 71.8188 243.17 71.8188Z" fill="white"/>
<defs>
<clipPath id="clip0_1_7424">
<rect width="49.2266" height="47.7572" fill="white" transform="translate(132.674 38.4382)"/>
</clipPath>
</defs>
</svg>
